<svg xmlns="http://www.w3.org/2000/svg" width="203" height="200" viewBox="0 0 203 200">
    <path fill="#0F0F0F" fill-rule="evenodd" d="M141.193 88.969a4.413 4.413 0 0 1-4.411 4.407H96.08a12.515 12.515 0 0 1-10.786-6.16l-9.583-16.613-10.629-18.461a4.287 4.287 0 0 1-.588-2.155 4.41 4.41 0 0 1 4.414-4.408h40.697c4.592 0 8.616 2.477 10.786 6.161l10.877 18.863 9.336 16.206a4.36 4.36 0 0 1 .589 2.16zm0 14.328a4.37 4.37 0 0 1-.59 2.16l-9.335 16.207-10.877 18.864a12.518 12.518 0 0 1-10.786 6.155H68.908a4.404 4.404 0 0 1-4.414-4.402c0-.788.22-1.526.588-2.163l10.629-18.454 9.583-16.614a12.51 12.51 0 0 1 10.786-6.16h40.702a4.412 4.412 0 0 1 4.41 4.407zm-14.89 53.308a4.404 4.404 0 0 1 4.411-4.402h40.697c4.594 0 8.612 2.478 10.788 6.157l9.581 16.611 10.63 18.455c.367.642.59 1.368.59 2.16a4.413 4.413 0 0 1-4.417 4.414h-40.697c-4.597 0-8.61-2.48-10.791-6.164l-10.872-18.865-9.335-16.2a4.37 4.37 0 0 1-.585-2.166zM203 103.296c0 .789-.223 1.523-.585 2.161l-9.335 16.207-10.877 18.865c-2.18 3.678-6.194 6.155-10.787 6.155h-40.702a4.404 4.404 0 0 1-4.41-4.404c0-.787.22-1.525.584-2.162l10.634-18.454 9.579-16.614a12.509 12.509 0 0 1 10.785-6.16h40.703a4.405 4.405 0 0 1 4.411 4.406zM23.675.582a4.425 4.425 0 0 1 6.027 1.632l20.233 35.25c2.286 3.977 2.127 8.684.005 12.397L40.262 66.42 29.501 84.792c-.373.64-.9 1.199-1.586 1.589a4.416 4.416 0 0 1-6.021-1.629L1.657 49.503a12.446 12.446 0 0 1-.007-12.397l10.992-18.794 9.447-16.14a4.442 4.442 0 0 1 1.586-1.59zm36.487 54.694L80.4 90.52a12.484 12.484 0 0 1 .006 12.401l-9.68 16.555-10.76 18.377a4.293 4.293 0 0 1-1.586 1.591 4.417 4.417 0 0 1-6.027-1.637l-20.232-35.24a12.454 12.454 0 0 1-.01-12.4l10.993-18.792 9.447-16.142a4.383 4.383 0 0 1 1.587-1.593 4.427 4.427 0 0 1 6.025 1.636z"/>
</svg>
