<svg xmlns="http://www.w3.org/2000/svg" width="200" height="158" viewBox="0 0 200 158">
    <path fill="#000" fill-rule="nonzero" d="M104 83.57v70.425a4.002 4.002 0 0 1-4 4.005c-2.21 0-4-1.793-4-4.005V83.57L82.828 96.757a3.997 3.997 0 0 1-5.656 0 4.008 4.008 0 0 1 0-5.663L100 68.239l22.828 22.855a4.008 4.008 0 0 1 0 5.663 3.997 3.997 0 0 1-5.656 0L104 83.57zm96 6.747c0 19.689-15.94 35.646-35.608 35.646H128c-2.21 0-4-1.793-4-4.005a4.002 4.002 0 0 1 4-4.005h36.392c15.25 0 27.608-12.37 27.608-27.636 0-15.227-12.295-27.577-27.49-27.64-.06.004-.126.006-.35.012a4.003 4.003 0 0 1-3.97-4.495c.254-2.055.382-3.832.382-5.533 0-24.66-19.967-44.652-44.6-44.652-18.8 0-35.36 11.783-41.793 29.186-1.012 2.74-4.52 3.508-6.582 1.44a19.944 19.944 0 0 0-14.173-5.889c-11.066 0-20.036 8.98-20.036 20.055 0 .042.004.11.018.31v.012c.017.226.017.226.031.54a4.004 4.004 0 0 1-2.931 4.004C17.306 61.319 8 73.355 8 87.242c0 16.963 13.734 30.711 30.68 30.711H72c2.21 0 4 1.793 4 4.005a4.002 4.002 0 0 1-4 4.005H38.68C17.316 125.963 0 108.628 0 87.242 0 70.77 10.375 56.369 25.453 50.88c.985-14.604 13.131-26.144 27.971-26.144a27.908 27.908 0 0 1 15.423 4.63C77.577 11.65 95.664 0 115.972 0c29.052 0 52.6 23.577 52.6 52.661 0 .74-.02 1.484-.058 2.243C186.24 56.949 200 72.024 200 90.317z"/>
</svg>
